<svg width="118" height="32" viewBox="0 0 118 32" fill="none" xmlns="http://www.w3.org/2000/svg">
<path d="M25 16V31H19V16C19 14.1593 18.3283 12.4926 17.2433 11.2852C16.1567 10.0796 14.6567 9.33333 13 9.33333C9.68667 9.33333 7 12.3185 7 16V31H1V1H7V4.45C8.765 3.31667 10.815 2.66667 13 2.66667C15.185 2.66667 17.235 3.31667 19 4.45185C19.9117 5.03704 20.7467 5.75185 21.485 6.57222C23.6567 8.98518 25 12.3185 25 16Z" fill="white" stroke="#231F20" stroke-miterlimit="10"/>
<path d="M48.4849 8.58403C47.7482 7.83292 46.9142 7.17931 46.0058 6.64125C44.2402 5.59764 42.1879 5 39.9991 5C37.8104 5 35.7686 5.59403 34.0066 6.63222C30.4189 8.74653 28.0035 12.6989 28 17.2272V17.2363C28 20.6108 29.3405 23.6676 31.5098 25.8831C32.25 26.6396 33.0858 27.2968 33.9996 27.8331C35.7633 28.8731 37.8086 29.4689 39.992 29.4707C42.1808 29.4707 44.2332 28.8767 46.0004 27.8331V31H52V17.2344C52 13.8563 50.6559 10.7976 48.4849 8.58222V8.58403ZM46.0004 17.2381C46.0004 20.6163 43.3106 23.3535 39.9973 23.3517C38.3399 23.3517 36.84 22.6656 35.7544 21.5569C34.6725 20.4501 34.0013 18.9226 34.0013 17.2381V17.2308C34.0013 13.8544 36.6894 11.1172 40.0009 11.1172C41.6584 11.1172 43.1583 11.8015 44.2438 12.9083C45.3293 14.0169 46.0004 15.5463 46.0004 17.2344V17.2381Z" fill="white" stroke="#231F20" stroke-miterlimit="10"/>
<path d="M55 19.7064V7H61.0005V19.7064C61.0005 21.2648 61.6728 22.6776 62.7565 23.6995C63.8422 24.7214 65.3433 25.3523 66.999 25.3523C70.3123 25.3523 72.9995 22.8231 72.9995 19.7046V7H79V19.7064C79 25.9435 73.6276 31 67.001 31C63.6877 31 60.6874 29.7363 58.516 27.6926C56.3446 25.6488 55 22.825 55 19.7064Z" fill="white" stroke="#231F20" stroke-miterlimit="10"/>
<path d="M117 18.2927V30.9981H112V18.2927C112 16.7345 111.441 15.3217 110.537 14.2999C109.631 13.2781 108.381 12.6473 107 12.6473C104.239 12.6473 102.001 15.1763 102.001 18.2946V31H97.001V18.2927C97.001 16.7345 96.4414 15.3217 95.5376 14.2999C94.632 13.2781 93.382 12.6473 92.0012 12.6473C89.2397 12.6473 87.0015 15.1763 87.0015 18.2946V31H82V18.2927C82 12.0561 86.4781 7 91.9995 7C94.7611 7 97.261 8.26356 99.0704 10.3072C99.2185 10.4752 99.3614 10.6471 99.4991 10.8247C101.331 8.47887 104.013 7 107 7C109.762 7 112.262 8.26356 114.071 10.3072C115.881 12.3508 117 15.1744 117 18.2927Z" fill="white" stroke="#231F20" stroke-miterlimit="10"/>
</svg>
