<svg width="120" height="32" viewBox="0 0 120 32" fill="none" xmlns="http://www.w3.org/2000/svg">
<path d="M27 16V31H20.5V16C20.5 14.1593 19.7724 12.4926 18.5969 11.2852C17.4197 10.0796 15.7947 9.33333 14 9.33333C10.4106 9.33333 7.5 12.3185 7.5 16V31H1V1H7.5V4.45C9.41208 3.31667 11.6329 2.66667 14 2.66667C16.3671 2.66667 18.5879 3.31667 20.5 4.45185C21.4876 5.03704 22.3922 5.75185 23.1921 6.57222C25.5447 8.98518 27 12.3185 27 16Z" fill="#231F20" stroke="#231F20" stroke-miterlimit="10"/>
<path d="M50.4849 8.58403C49.7482 7.83292 48.9142 7.17931 48.0058 6.64125C46.2402 5.59764 44.1879 5 41.9991 5C39.8104 5 37.7686 5.59403 36.0066 6.63222C32.4189 8.74653 30.0035 12.6989 30 17.2272V17.2363C30 20.6108 31.3405 23.6676 33.5098 25.8831C34.25 26.6396 35.0858 27.2968 35.9996 27.8331C37.7633 28.8731 39.8086 29.4689 41.992 29.4707C44.1808 29.4707 46.2332 28.8767 48.0004 27.8331V31H54V17.2344C54 13.8563 52.6559 10.7976 50.4849 8.58222V8.58403ZM48.0004 17.2381C48.0004 20.6163 45.3106 23.3535 41.9973 23.3517C40.3399 23.3517 38.84 22.6656 37.7544 21.5569C36.6725 20.4501 36.0013 18.9226 36.0013 17.2381V17.2308C36.0013 13.8544 38.6894 11.1172 42.0009 11.1172C43.6584 11.1172 45.1583 11.8015 46.2438 12.9083C47.3293 14.0169 48.0004 15.5463 48.0004 17.2344V17.2381Z" fill="#231F20" stroke="#231F20" stroke-miterlimit="10"/>
<path d="M57 19.7064V7H63.0005V19.7064C63.0005 21.2648 63.6728 22.6776 64.7565 23.6995C65.8422 24.7214 67.3433 25.3523 68.999 25.3523C72.3123 25.3523 74.9995 22.8231 74.9995 19.7046V7H81V19.7064C81 25.9435 75.6276 31 69.001 31C65.6877 31 62.6874 29.7363 60.516 27.6926C58.3446 25.6488 57 22.825 57 19.7064Z" fill="#231F20" stroke="#231F20" stroke-miterlimit="10"/>
<path d="M119 18.2927V30.9981H114V18.2927C114 16.7345 113.441 15.3217 112.537 14.2999C111.631 13.2781 110.381 12.6473 109 12.6473C106.239 12.6473 104.001 15.1763 104.001 18.2946V31H99.001V18.2927C99.001 16.7345 98.4414 15.3217 97.5376 14.2999C96.632 13.2781 95.382 12.6473 94.0012 12.6473C91.2397 12.6473 89.0015 15.1763 89.0015 18.2946V31H84V18.2927C84 12.0561 88.4781 7 93.9995 7C96.7611 7 99.261 8.26356 101.07 10.3072C101.219 10.4752 101.361 10.6471 101.499 10.8247C103.331 8.47887 106.013 7 109 7C111.762 7 114.262 8.26356 116.071 10.3072C117.881 12.3508 119 15.1744 119 18.2927Z" fill="#231F20" stroke="#231F20" stroke-miterlimit="10"/>
</svg>
